# xmcd
#
# Track frame offsets:
#	150
#	26727
#	77756
#	103949
#	136627
#	153837
#	178417
#	210728
#	241375
#	263750
#
# Disc length: 3852 seconds
#
# Revision: 1
# Processed by: cddbd v1.5.2PL0 Copyright (c) Steve Scherf et al.
# Submitted via: audiograbber 1.83.01
#
DISCID=830f0a0a
DTITLE=Genesis - Live - The Way We Walk (Remaster 2009) Disc 2
DYEAR=1993
DGENRE=Pop
TTITLE0=Hold On My Heart
TTITLE1=Domino: In The Glow Of The Night - The Last Domino
TTITLE2=The Drum Thing
TTITLE3=I Can't Dance
TTITLE4=Tonight, Tonight, Tonight
TTITLE5=Invisible Touch
TTITLE6=Turn It On Again
TTITLE7=Mama
TTITLE8=That's All
TTITLE9=In Too Deep
EXTD=
EXTT0=
EXTT1=
EXTT2=
EXTT3=
EXTT4=
EXTT5=
EXTT6=
EXTT7=
EXTT8=
EXTT9=
PLAYORDER=
